<?xml version="1.0" encoding="utf-8"?>
<!-- Generator: Adobe Illustrator 22.1.0, SVG Export Plug-In . SVG Version: 6.00 Build 0)  -->
<svg version="1.1" id="Layer_1" xmlns="http://www.w3.org/2000/svg" xmlns:xlink="http://www.w3.org/1999/xlink" x="0px" y="0px"
	 viewBox="0 0 300 300" style="enable-background:new 0 0 300 300;" xml:space="preserve">
<style type="text/css">
	.st0{fill:#06799F;}
	.st1{fill:#FFFFFF;}
</style>
<circle class="st0" cx="150" cy="150" r="150">
	<animate attributeName="fill" values="#06799F;#FFB400;#FF8300;#FF2800;#839750;#06799F" dur="3s" repeatCount="indefinite" />
</circle>
<g>
		<polygon class="st1" points="172.6,27.1 127.4,27.1 104.8,66.3 127.4,105.5 172.6,105.5 195.2,66.3">
			<animate attributeName="fill-opacity"
			 begin="100ms" dur="1s"
			 values="1;.2;1" calcMode="linear"
			 repeatCount="indefinite" />
		</polygon>

		<polygon class="st1" points="172.6,110 127.4,110 104.8,149.2 127.4,188.3 172.6,188.3 195.2,149.2 		">
			<animate attributeName="fill-opacity"
			 begin="900ms" dur="1s"
			 values="1;.2;1" calcMode="linear"
			 repeatCount="indefinite" />
		</polygon>

		<polygon class="st1" points="172.6,194.5 127.4,194.5 104.8,233.7 127.4,272.9 172.6,272.9 195.2,233.7 		">
			<animate attributeName="fill-opacity"
			 begin="600ms" dur="1s"
			 values="1;.2;1" calcMode="linear"
			 repeatCount="indefinite" />
		</polygon>

		<polygon class="st1" points="245.3,67.7 200.1,67.7 177.5,106.9 200.1,146.1 245.3,146.1 268,106.9 		">
			<animate attributeName="fill-opacity"
			 begin="700ms" dur="1s"
			 values="1;.2;1" calcMode="linear"
			 repeatCount="indefinite" />
		</polygon>


		<polygon class="st1" points="99.9,67.7 54.7,67.7 32,106.9 54.7,146.1 99.9,146.1 122.5,106.9 		">
			<animate attributeName="fill-opacity"
			 begin="300ms" dur="1s"
			 values="1;.2;1" calcMode="linear"
			 repeatCount="indefinite" />
		</polygon>


		<polygon class="st1" points="99.9,152.3 54.7,152.3 32,191.4 54.7,230.6 99.9,230.6 122.5,191.4 		">
			<animate attributeName="fill-opacity"
			 begin="200ms" dur="1s"
			 values="1;.2;1" calcMode="linear"
			 repeatCount="indefinite" />
		</polygon>


		<polygon class="st1" points="245.3,152.3 200.1,152.3 177.5,191.4 200.1,230.6 245.3,230.6 268,191.4 		">
			<animate attributeName="fill-opacity"
			 begin="500ms" dur="1s"
			 values="1;.2;1" calcMode="linear"
			 repeatCount="indefinite" />
		</polygon>

</g>
</svg>
